# Blender 4.5.4 LTS
# www.blender.org
o Cube
v 1.000000 -1.000000 1.000000
v 1.000000 1.000000 1.000000
v 1.000000 -1.000000 -1.000000
v 1.000000 1.000000 -1.000000
v -1.000000 -1.000000 1.000000
v -1.000000 1.000000 1.000000
v -1.000000 -1.000000 -1.000000
v -1.000000 1.000000 -1.000000
vn -0.0000 -1.0000 -0.0000
vn -1.0000 -0.0000 -0.0000
vn 1.0000 -0.0000 -0.0000
vn -0.0000 -0.0000 1.0000
vn -0.0000 -0.0000 -1.0000
vn -0.0000 1.0000 -0.0000
vt 0.000100 0.000100
vt 0.999900 0.000100
vt 0.999900 0.999900
vt 0.000100 0.999900
vt 0.000100 0.000100
vt 0.999900 0.000100
vt 0.999900 0.999900
vt 0.000100 0.999900
vt 0.000100 0.000100
vt 0.999900 0.000100
s 1
f 7/1/1 3/2/1 1/3/1 5/4/1
f 8/4/2 7/5/2 5/6/2 6/7/2
f 2/4/3 1/5/3 3/6/3 4/7/3
f 6/4/4 5/5/4 1/6/4 2/7/4
f 4/4/5 3/5/5 7/6/5 8/7/5
f 4/7/6 8/8/6 6/9/6 2/10/6
