# Blender 4.5.3 LTS
# www.blender.org
o Cube
v 1.000000 -1.000000 1.000000
v 1.000000 1.000000 1.000000
v 1.000000 -1.000000 -1.000000
v 1.000000 1.000000 -1.000000
v -1.000000 -1.000000 1.000000
v -1.000000 1.000000 1.000000
v -1.000000 -1.000000 -1.000000
v -1.000000 1.000000 -1.000000
vn -0.0000 -1.0000 -0.0000
vn -1.0000 -0.0000 -0.0000
vn 1.0000 -0.0000 -0.0000
vn -0.0000 -0.0000 1.0000
vn -0.0000 -0.0000 -1.0000
vn -0.0000 1.0000 -0.0000
vt 1.000000 1.000000
vt 1.000000 0.000000
vt 0.000000 0.000000
vt 0.000000 1.000000
s 0
f 7/1/1 3/4/1 1/3/1 5/2/1
f 8/1/2 7/2/2 5/3/2 6/4/2
f 2/4/3 1/3/3 3/2/3 4/1/3
f 6/1/4 5/2/4 1/3/4 2/4/4
f 4/4/5 3/3/5 7/2/5 8/1/5
f 4/4/6 8/1/6 6/2/6 2/3/6
