# Blender 4.5.3 LTS
# www.blender.org
o Cube
v 1.000000 1.000000 -1.000000
v -1.000000 1.000000 -1.000000
v -1.000000 -1.000000 1.000000
v 1.000000 1.000000 1.000000
v -1.000000 1.000000 1.000000
v 1.000000 -1.000000 1.000000
v -1.000000 -1.000000 -1.000000
v 1.000000 -1.000000 -1.000000
vn -0.0000 1.0000 -0.0000
vn -0.0000 -0.0000 1.0000
vn -1.0000 -0.0000 -0.0000
vn -0.0000 -1.0000 -0.0000
vn 1.0000 -0.0000 -0.0000
vn -0.0000 -0.0000 -1.0000
vt 0.999900 0.000100
vt 0.999900 0.999900
vt 0.000100 0.999900
vt 0.000100 0.000100
vt -0.999700 0.000100
vt -0.999700 0.999900
vt 0.000100 1.999700
vt 0.999900 1.999700
vt 1.999700 0.999900
vt 1.999700 0.000100
vt 2.999499 0.000100
vt 2.999499 0.999900
vt 0.999900 -0.999700
vt 0.000100 -0.999700
s 1
f 1/1/1 2/2/1 5/3/1 4/4/1
f 6/5/2 4/4/2 5/3/2 3/6/2
f 3/7/3 5/3/3 2/2/3 7/8/3
f 7/9/4 8/10/4 6/11/4 3/12/4
f 8/13/5 1/1/5 4/4/5 6/14/5
f 7/9/6 2/2/6 1/1/6 8/10/6
